<svg width="20" height="20" viewBox="0 0 20 20" fill="none" xmlns="http://www.w3.org/2000/svg">
<path class="highlight" d="M5.5 3C11.5 7.5 11.0579 12.7877 10 19L5.5 15.5C5.23759 11.8197 4.2108 9.88815 2 6.5C4.44005 7.26264 5.75264 8.52252 8 12.5C7.33018 7.59822 6.65878 5.65901 5.5 3Z" fill="#5B5A56" stroke="#5B5A56"/>
<path class="highlight" d="M12.5 10.5L11 8C11.5431 4.15049 12.4775 3.14542 14.5 2C13.3162 4.55736 12.8881 6.04321 13.5 9L12.5 10.5Z" fill="#5B5A56"/>
<path class="highlight" d="M11.5 9L11 8M11 8L12.5 10.5L13.5 9C12.8881 6.04321 13.3162 4.55736 14.5 2C12.4775 3.14542 11.5431 4.15049 11 8Z" stroke="#5B5A56"/>
<path class="highlight" d="M13.5 16L16 13.5C16.4327 10.3338 17.1004 8.80396 18 6.5C14.6396 9.25238 13.8019 11.4231 13.5 16Z" fill="#5B5A56" stroke="#5B5A56"/>
</svg>
