<svg width="21" height="21" viewBox="0 0 21 21" fill="none" xmlns="http://www.w3.org/2000/svg">
<path class="highlight" d="M8.19775 18L10.6978 20L13.1978 18L11.1978 9V8H10.1978V9L8.19775 18Z" fill="#5B5A56" stroke="#5B5A56"/>
<path class="highlight" d="M11.1978 6H10.1978L7.19775 2L8.19775 1H13.1978L14.1978 2L11.1978 6Z" fill="#5B5A56" stroke="#5B5A56"/>
<path class="highlight" d="M20.1979 5.00007C16.9188 4.85126 15.408 5.33214 13.1979 7.00007C12.946 7.31765 12.9223 7.52831 13.1979 8L15.1979 11L16.6979 10L15.6979 7.5C18.4742 7.52403 19.5019 7.01385 20.1979 5.00007Z" fill="#5B5A56" stroke="#5B5A56"/>
<path class="highlight" d="M0.99987 5.00007C4.27891 4.85126 5.78977 5.33214 7.99987 7.00007C8.25174 7.31765 8.27543 7.52831 7.99987 8L5.99987 11L4.49987 10L5.49987 7.5C2.7236 7.52403 1.69582 7.01385 0.99987 5.00007Z" fill="#5B5A56" stroke="#5B5A56"/>
</svg>
